<svg xmlns="http://www.w3.org/2000/svg" version="1.1" width="233.7mm" height="157.3mm" viewBox = " 0 0 828.0715469999999 557.362663" >
<!-- Front--> 
<g transform="translate(21.25986, 21.25986) " > 
<polygon style="stroke:#000000; fill:none; stroke-width:0.90000074" points="0, 0 29.5866385, 0 29.5866385, 9.566937000000001 59.173277, 9.566937000000001 59.173277, 0 80.433137, 0 80.433137, 9.566937000000001 101.69299699999999, 9.566937000000001 101.69299699999999, 0 122.952857, 0 122.952857, 9.566937000000001 144.212717, 9.566937000000001 144.212717, 0 165.472577, 0 165.472577, 9.566937000000001 195.0592155, 9.566937000000001 195.0592155, 0 224.64585399999999, 0 224.64585399999999, 28.700810999999998 215.078917, 28.700810999999998 215.078917, 57.401621999999996 224.64585399999999, 57.401621999999996 224.64585399999999, 78.66148199999999 215.078917, 78.66148199999999 215.078917, 99.921342 224.64585399999999, 99.921342 224.64585399999999, 121.18120199999998 215.078917, 121.18120199999998 215.078917, 149.88201299999997 224.64585399999999, 149.88201299999997 224.64585399999999, 178.582824 195.0592155, 178.582824 195.0592155, 169.015887 165.472577, 169.015887 165.472577, 178.582824 144.212717, 178.582824 144.212717, 169.015887 122.952857, 169.015887 122.952857, 178.582824 101.69299699999999, 178.582824 101.69299699999999, 169.015887 80.433137, 169.015887 80.433137, 178.582824 59.173277, 178.582824 59.173277, 169.015887 29.5866385, 169.015887 29.5866385, 178.582824 0, 178.582824 0, 149.88201299999997 9.566937000000001, 149.88201299999997 9.566937000000001, 121.18120199999998 0, 121.18120199999998 0, 99.921342 9.566937000000001, 99.921342 9.566937000000001, 78.66148199999999 0, 78.66148199999999 0, 57.401621999999996 9.566937000000001, 57.401621999999996 9.566937000000001, 28.700810999999998 0, 28.700810999999998 "/> 
</g>
<!-- Back--> 
<g transform="translate(245.90571400000002, 21.25986) " > 
<polygon style="stroke:#000000; fill:none; stroke-width:0.90000074" points="0, 0 29.5866385, 0 29.5866385, 9.566937000000001 59.173277, 9.566937000000001 59.173277, 0 80.433137, 0 80.433137, 9.566937000000001 101.69299699999999, 9.566937000000001 101.69299699999999, 0 122.952857, 0 122.952857, 9.566937000000001 144.212717, 9.566937000000001 144.212717, 0 165.472577, 0 165.472577, 9.566937000000001 195.0592155, 9.566937000000001 195.0592155, 0 224.64585399999999, 0 224.64585399999999, 28.700810999999998 215.078917, 28.700810999999998 215.078917, 57.401621999999996 224.64585399999999, 57.401621999999996 224.64585399999999, 78.66148199999999 215.078917, 78.66148199999999 215.078917, 99.921342 224.64585399999999, 99.921342 224.64585399999999, 121.18120199999998 215.078917, 121.18120199999998 215.078917, 149.88201299999997 224.64585399999999, 149.88201299999997 224.64585399999999, 178.582824 195.0592155, 178.582824 195.0592155, 169.015887 165.472577, 169.015887 165.472577, 178.582824 144.212717, 178.582824 144.212717, 169.015887 122.952857, 169.015887 122.952857, 178.582824 101.69299699999999, 178.582824 101.69299699999999, 169.015887 80.433137, 169.015887 80.433137, 178.582824 59.173277, 178.582824 59.173277, 169.015887 29.5866385, 169.015887 29.5866385, 178.582824 0, 178.582824 0, 149.88201299999997 9.566937000000001, 149.88201299999997 9.566937000000001, 121.18120199999998 0, 121.18120199999998 0, 99.921342 9.566937000000001, 99.921342 9.566937000000001, 78.66148199999999 0, 78.66148199999999 0, 57.401621999999996 9.566937000000001, 57.401621999999996 9.566937000000001, 28.700810999999998 0, 28.700810999999998 "/> 
</g>
<!-- Left--> 
<g transform="translate(470.55156800000003, 21.25986) " > 
<polygon style="stroke:#000000; fill:none; stroke-width:0.90000074" points="9.566937000000001, 0 36.23034475000001, 0 36.23034475000001, 9.566937000000001 72.46068950000002, 9.566937000000001 72.46068950000002, 0 93.72054950000002, 0 93.72054950000002, 9.566937000000001 114.98040950000001, 9.566937000000001 114.98040950000001, 0 136.2402695, 0 136.2402695, 9.566937000000001 157.5001295, 9.566937000000001 157.5001295, 0 178.75998950000002, 0 178.75998950000002, 9.566937000000001 200.01984950000002, 9.566937000000001 200.01984950000002, 0 221.27970950000002, 0 221.27970950000002, 9.566937000000001 242.53956950000003, 9.566937000000001 242.53956950000003, 0 263.79942950000003, 0 263.79942950000003, 9.566937000000001 300.02977425000006, 9.566937000000001 300.02977425000006, 0 326.69318200000004, 0 326.69318200000004, 28.700810999999998 336.26011900000003, 28.700810999999998 336.26011900000003, 57.401621999999996 326.69318200000004, 57.401621999999996 326.69318200000004, 78.66148199999999 336.26011900000003, 78.66148199999999 336.26011900000003, 99.921342 326.69318200000004, 99.921342 326.69318200000004, 121.18120199999998 336.26011900000003, 121.18120199999998 336.26011900000003, 149.88201299999997 326.69318200000004, 149.88201299999997 326.69318200000004, 178.582824 300.02977425000006, 178.582824 300.02977425000006, 169.015887 263.79942950000003, 169.015887 263.79942950000003, 178.582824 242.53956950000003, 178.582824 242.53956950000003, 169.015887 221.27970950000002, 169.015887 221.27970950000002, 178.582824 200.01984950000002, 178.582824 200.01984950000002, 169.015887 178.75998950000002, 169.015887 178.75998950000002, 178.582824 157.5001295, 178.582824 157.5001295, 169.015887 136.2402695, 169.015887 136.2402695, 178.582824 114.98040950000001, 178.582824 114.98040950000001, 169.015887 93.72054950000002, 169.015887 93.72054950000002, 178.582824 72.46068950000002, 178.582824 72.46068950000002, 169.015887 36.23034475000001, 169.015887 36.23034475000001, 178.582824 9.566937000000001, 178.582824 9.566937000000001, 149.88201299999997 0, 149.88201299999997 0, 121.18120199999998 9.566937000000001, 121.18120199999998 9.566937000000001, 99.921342 0, 99.921342 0, 78.66148199999999 9.566937000000001, 78.66148199999999 9.566937000000001, 57.401621999999996 0, 57.401621999999996 0, 28.700810999999998 9.566937000000001, 28.700810999999998 "/> 
</g>
<!-- Right--> 
<g transform="translate(470.55156800000003, 199.842684) " > 
<polygon style="stroke:#000000; fill:none; stroke-width:0.90000074" points="9.566937000000001, 0 36.23034475000001, 0 36.23034475000001, 9.566937000000001 72.46068950000002, 9.566937000000001 72.46068950000002, 0 93.72054950000002, 0 93.72054950000002, 9.566937000000001 114.98040950000001, 9.566937000000001 114.98040950000001, 0 136.2402695, 0 136.2402695, 9.566937000000001 157.5001295, 9.566937000000001 157.5001295, 0 178.75998950000002, 0 178.75998950000002, 9.566937000000001 200.01984950000002, 9.566937000000001 200.01984950000002, 0 221.27970950000002, 0 221.27970950000002, 9.566937000000001 242.53956950000003, 9.566937000000001 242.53956950000003, 0 263.79942950000003, 0 263.79942950000003, 9.566937000000001 300.02977425000006, 9.566937000000001 300.02977425000006, 0 326.69318200000004, 0 326.69318200000004, 28.700810999999998 336.26011900000003, 28.700810999999998 336.26011900000003, 57.401621999999996 326.69318200000004, 57.401621999999996 326.69318200000004, 78.66148199999999 336.26011900000003, 78.66148199999999 336.26011900000003, 99.921342 326.69318200000004, 99.921342 326.69318200000004, 121.18120199999998 336.26011900000003, 121.18120199999998 336.26011900000003, 149.88201299999997 326.69318200000004, 149.88201299999997 326.69318200000004, 178.582824 300.02977425000006, 178.582824 300.02977425000006, 169.015887 263.79942950000003, 169.015887 263.79942950000003, 178.582824 242.53956950000003, 178.582824 242.53956950000003, 169.015887 221.27970950000002, 169.015887 221.27970950000002, 178.582824 200.01984950000002, 178.582824 200.01984950000002, 169.015887 178.75998950000002, 169.015887 178.75998950000002, 178.582824 157.5001295, 178.582824 157.5001295, 169.015887 136.2402695, 169.015887 136.2402695, 178.582824 114.98040950000001, 178.582824 114.98040950000001, 169.015887 93.72054950000002, 169.015887 93.72054950000002, 178.582824 72.46068950000002, 178.582824 72.46068950000002, 169.015887 36.23034475000001, 169.015887 36.23034475000001, 178.582824 9.566937000000001, 178.582824 9.566937000000001, 149.88201299999997 0, 149.88201299999997 0, 121.18120199999998 9.566937000000001, 121.18120199999998 9.566937000000001, 99.921342 0, 99.921342 0, 78.66148199999999 9.566937000000001, 78.66148199999999 9.566937000000001, 57.401621999999996 0, 57.401621999999996 0, 28.700810999999998 9.566937000000001, 28.700810999999998 "/> 
</g>
<!-- Top--> 
<g transform="translate(21.25986, 199.842684) " > 
<polygon style="stroke:#000000; fill:none; stroke-width:0.90000074" points="9.566937000000001, 9.566937000000001 29.5866385, 9.566937000000001 29.5866385, 0 59.173277, 0 59.173277, 9.566937000000001 80.433137, 9.566937000000001 80.433137, 0 101.69299699999999, 0 101.69299699999999, 9.566937000000001 122.952857, 9.566937000000001 122.952857, 0 144.212717, 0 144.212717, 9.566937000000001 165.472577, 9.566937000000001 165.472577, 0 195.0592155, 0 195.0592155, 9.566937000000001 215.078917, 9.566937000000001 215.078917, 36.23034475000001 224.64585399999999, 36.23034475000001 224.64585399999999, 72.46068950000002 215.078917, 72.46068950000002 215.078917, 93.72054950000002 224.64585399999999, 93.72054950000002 224.64585399999999, 114.98040950000001 215.078917, 114.98040950000001 215.078917, 136.2402695 224.64585399999999, 136.2402695 224.64585399999999, 157.5001295 215.078917, 157.5001295 215.078917, 178.75998950000002 224.64585399999999, 178.75998950000002 224.64585399999999, 200.01984950000002 215.078917, 200.01984950000002 215.078917, 221.27970950000002 224.64585399999999, 221.27970950000002 224.64585399999999, 242.53956950000003 215.078917, 242.53956950000003 215.078917, 263.79942950000003 224.64585399999999, 263.79942950000003 224.64585399999999, 300.02977425000006 215.078917, 300.02977425000006 215.078917, 326.69318200000004 195.0592155, 326.69318200000004 195.0592155, 336.26011900000003 165.472577, 336.26011900000003 165.472577, 326.69318200000004 144.212717, 326.69318200000004 144.212717, 336.26011900000003 122.952857, 336.26011900000003 122.952857, 326.69318200000004 101.69299699999999, 326.69318200000004 101.69299699999999, 336.26011900000003 80.433137, 336.26011900000003 80.433137, 326.69318200000004 59.173277, 326.69318200000004 59.173277, 336.26011900000003 29.5866385, 336.26011900000003 29.5866385, 326.69318200000004 9.566937000000001, 326.69318200000004 9.566937000000001, 300.02977425000006 0, 300.02977425000006 0, 263.79942950000003 9.566937000000001, 263.79942950000003 9.566937000000001, 242.53956950000003 0, 242.53956950000003 0, 221.27970950000002 9.566937000000001, 221.27970950000002 9.566937000000001, 200.01984950000002 0, 200.01984950000002 0, 178.75998950000002 9.566937000000001, 178.75998950000002 9.566937000000001, 157.5001295 0, 157.5001295 0, 136.2402695 9.566937000000001, 136.2402695 9.566937000000001, 114.98040950000001 0, 114.98040950000001 0, 93.72054950000002 9.566937000000001, 93.72054950000002 9.566937000000001, 72.46068950000002 0, 72.46068950000002 0, 36.23034475000001 9.566937000000001, 36.23034475000001 "/> 
</g>
<!-- Bottom--> 
<g transform="translate(245.90571400000002, 199.842684) " > 
<polygon style="stroke:#000000; fill:none; stroke-width:0.90000074" points="9.566937000000001, 9.566937000000001 29.5866385, 9.566937000000001 29.5866385, 0 59.173277, 0 59.173277, 9.566937000000001 80.433137, 9.566937000000001 80.433137, 0 101.69299699999999, 0 101.69299699999999, 9.566937000000001 122.952857, 9.566937000000001 122.952857, 0 144.212717, 0 144.212717, 9.566937000000001 165.472577, 9.566937000000001 165.472577, 0 195.0592155, 0 195.0592155, 9.566937000000001 215.078917, 9.566937000000001 215.078917, 36.23034475000001 224.64585399999999, 36.23034475000001 224.64585399999999, 72.46068950000002 215.078917, 72.46068950000002 215.078917, 93.72054950000002 224.64585399999999, 93.72054950000002 224.64585399999999, 114.98040950000001 215.078917, 114.98040950000001 215.078917, 136.2402695 224.64585399999999, 136.2402695 224.64585399999999, 157.5001295 215.078917, 157.5001295 215.078917, 178.75998950000002 224.64585399999999, 178.75998950000002 224.64585399999999, 200.01984950000002 215.078917, 200.01984950000002 215.078917, 221.27970950000002 224.64585399999999, 221.27970950000002 224.64585399999999, 242.53956950000003 215.078917, 242.53956950000003 215.078917, 263.79942950000003 224.64585399999999, 263.79942950000003 224.64585399999999, 300.02977425000006 215.078917, 300.02977425000006 215.078917, 326.69318200000004 195.0592155, 326.69318200000004 195.0592155, 336.26011900000003 165.472577, 336.26011900000003 165.472577, 326.69318200000004 144.212717, 326.69318200000004 144.212717, 336.26011900000003 122.952857, 336.26011900000003 122.952857, 326.69318200000004 101.69299699999999, 326.69318200000004 101.69299699999999, 336.26011900000003 80.433137, 336.26011900000003 80.433137, 326.69318200000004 59.173277, 326.69318200000004 59.173277, 336.26011900000003 29.5866385, 336.26011900000003 29.5866385, 326.69318200000004 9.566937000000001, 326.69318200000004 9.566937000000001, 300.02977425000006 0, 300.02977425000006 0, 263.79942950000003 9.566937000000001, 263.79942950000003 9.566937000000001, 242.53956950000003 0, 242.53956950000003 0, 221.27970950000002 9.566937000000001, 221.27970950000002 9.566937000000001, 200.01984950000002 0, 200.01984950000002 0, 178.75998950000002 9.566937000000001, 178.75998950000002 9.566937000000001, 157.5001295 0, 157.5001295 0, 136.2402695 9.566937000000001, 136.2402695 9.566937000000001, 114.98040950000001 0, 114.98040950000001 0, 93.72054950000002 9.566937000000001, 93.72054950000002 9.566937000000001, 72.46068950000002 0, 72.46068950000002 0, 36.23034475000001 9.566937000000001, 36.23034475000001 "/> 
</g></svg>