  0
SECTION
  2
HEADER
  9
$ACADVER
  1
AC1014
  9
$HANDSEED
  5
FFFF
  9
$MEASUREMENT
 70
     1
  0
ENDSEC
  0
SECTION
  2
TABLES
  0
TABLE
  2
VPORT
  5
8
330
0
100
AcDbSymbolTable
 70
     4
  0
VPORT
  5
2E
330
8
100
AcDbSymbolTableRecord
100
AcDbViewportTableRecord
  2
*ACTIVE
 70
     0
 10
0.0
 20
0.0
 11
1.0
 21
1.0
 12
210.0
 22
148.5
 13
0.0
 23
0.0
 14
10.0
 24
10.0
 15
10.0
 25
10.0
 16
0.0
 26
0.0
 36
1.0
 17
0.0
 27
0.0
 37
0.0
 40
341.0
 41
1.24
 42
50.0
 43
0.0
 44
0.0
 50
0.0
 51
0.0
 71
     0
 72
   100
 73
     1
 74
     3
 75
     0
 76
     0
 77
     0
 78
     0
  0
ENDTAB
  0
TABLE
  2
LTYPE
  5
5
330
0
100
AcDbSymbolTable
 70
     1
  0
LTYPE
  5
14
330
5
100
AcDbSymbolTableRecord
100
AcDbLinetypeTableRecord
  2
BYBLOCK
 70
     0
  3

 72
    65
 73
     0
 40
0.0
  0
LTYPE
  5
15
330
5
100
AcDbSymbolTableRecord
100
AcDbLinetypeTableRecord
  2
BYLAYER
 70
     0
  3

 72
    65
 73
     0
 40
0.0
  0
LTYPE
  5
16
330
5
100
AcDbSymbolTableRecord
100
AcDbLinetypeTableRecord
  2
CONTINUOUS
 70
     0
  3
Solid line
 72
    65
 73
     0
 40
0.0
  0
ENDTAB
  0
TABLE
  2
LAYER
  5
2
100
AcDbSymbolTable
 70
1
  0
LAYER
  5
50
100
AcDbSymbolTableRecord
100
AcDbLayerTableRecord
  2
0
 70
0
  6
CONTINUOUS
  0
ENDTAB
  0
TABLE
  2
STYLE
  5
3
330
0
100
AcDbSymbolTable
 70
     1
  0
STYLE
  5
11
330
3
100
AcDbSymbolTableRecord
100
AcDbTextStyleTableRecord
  2
STANDARD
 70
     0
 40
0.0
 41
1.0
 50
0.0
 71
     0
 42
2.5
  3
txt
  4

  0
ENDTAB
  0
TABLE
  2
VIEW
  5
6
330
0
100
AcDbSymbolTable
 70
     0
  0
ENDTAB
  0
TABLE
  2
UCS
  5
7
330
0
100
AcDbSymbolTable
 70
     0
  0
ENDTAB
  0
TABLE
  2
APPID
  5
9
330
0
100
AcDbSymbolTable
 70
     2
  0
APPID
  5
12
330
9
100
AcDbSymbolTableRecord
100
AcDbRegAppTableRecord
  2
ACAD
 70
     0
  0
ENDTAB
  0
TABLE
  2
DIMSTYLE
  5
A
330
0
100
AcDbSymbolTable
 70
     1
  0
DIMSTYLE
105
27
330
A
100
AcDbSymbolTableRecord
100
AcDbDimStyleTableRecord
  2
ISO-25
 70
     0
  3

  4

  5

  6

  7

 40
1.0
 41
2.5
 42
0.625
 43
3.75
 44
1.25
 45
0.0
 46
0.0
 47
0.0
 48
0.0
140
2.5
141
2.5
142
0.0
143
0.03937007874016
144
1.0
145
0.0
146
1.0
147
0.625
 71
     0
 72
     0
 73
     0
 74
     0
 75
     0
 76
     0
 77
     1
 78
     8
170
     0
171
     3
172
     1
173
     0
174
     0
175
     0
176
     0
177
     0
178
     0
270
     2
271
     2
272
     2
273
     2
274
     3
340
11
275
     0
280
     0
281
     0
282
     0
283
     0
284
     8
285
     0
286
     0
287
     3
288
     0
  0
ENDTAB
  0
TABLE
  2
BLOCK_RECORD
  5
1
330
0
100
AcDbSymbolTable
 70
     1
  0
BLOCK_RECORD
  5
1F
330
1
100
AcDbSymbolTableRecord
100
AcDbBlockTableRecord
  2
*MODEL_SPACE
  0
BLOCK_RECORD
  5
1B
330
1
100
AcDbSymbolTableRecord
100
AcDbBlockTableRecord
  2
*PAPER_SPACE
  0
ENDTAB
  0
ENDSEC
  0
SECTION
  2
BLOCKS
  0
BLOCK
  5
20
330
1F
100
AcDbEntity
  8
0
100
AcDbBlockBegin
  2
*MODEL_SPACE
 70
     0
 10
0.0
 20
0.0
 30
0.0
  3
*MODEL_SPACE
  1

  0
ENDBLK
  5
21
330
1F
100
AcDbEntity
  8
0
100
AcDbBlockEnd
  0
BLOCK
  5
1C
330
1B
100
AcDbEntity
 67
     1
  8
0
100
AcDbBlockBegin
  2
*PAPER_SPACE
  1

  0
ENDBLK
  5
1D
330
1B
100
AcDbEntity
 67
     1
  8
0
100
AcDbBlockEnd
  0
ENDSEC
  0
SECTION
  2
ENTITIES
  0
LINE
  5
100
100
AcDbEntity
  8
0
 62
7
100
AcDbLine
 10
6.350005
 20
137.349995
 30
0.0
 11
19.350016
 21
137.349995
 31
0.0
  0
LINE
  5
101
100
AcDbEntity
  8
0
 62
7
100
AcDbLine
 10
19.350016
 20
137.349995
 30
0.0
 11
19.350016
 21
133.149991
 31
0.0
  0
LINE
  5
102
100
AcDbEntity
  8
0
 62
7
100
AcDbLine
 10
19.350016
 20
133.149991
 30
0.0
 11
30.350025
 21
133.149991
 31
0.0
  0
LINE
  5
103
100
AcDbEntity
  8
0
 62
7
100
AcDbLine
 10
30.350025
 20
133.149991
 30
0.0
 11
30.350025
 21
137.349995
 31
0.0
  0
LINE
  5
104
100
AcDbEntity
  8
0
 62
7
100
AcDbLine
 10
30.350025
 20
137.349995
 30
0.0
 11
40.350033
 21
137.349995
 31
0.0
  0
LINE
  5
105
100
AcDbEntity
  8
0
 62
7
100
AcDbLine
 10
40.350033
 20
137.349995
 30
0.0
 11
40.350033
 21
133.149991
 31
0.0
  0
LINE
  5
106
100
AcDbEntity
  8
0
 62
7
100
AcDbLine
 10
40.350033
 20
133.149991
 30
0.0
 11
51.350042
 21
133.149991
 31
0.0
  0
LINE
  5
107
100
AcDbEntity
  8
0
 62
7
100
AcDbLine
 10
51.350042
 20
133.149991
 30
0.0
 11
51.350042
 21
137.349995
 31
0.0
  0
LINE
  5
108
100
AcDbEntity
  8
0
 62
7
100
AcDbLine
 10
51.350042
 20
137.349995
 30
0.0
 11
64.350053
 21
137.349995
 31
0.0
  0
LINE
  5
109
100
AcDbEntity
  8
0
 62
7
100
AcDbLine
 10
64.350053
 20
137.349995
 30
0.0
 11
64.350053
 21
127.349987
 31
0.0
  0
LINE
  5
10a
100
AcDbEntity
  8
0
 62
7
100
AcDbLine
 10
64.350053
 20
127.349987
 30
0.0
 11
60.150050
 21
127.349987
 31
0.0
  0
LINE
  5
10b
100
AcDbEntity
  8
0
 62
7
100
AcDbLine
 10
60.150050
 20
127.349987
 30
0.0
 11
60.150050
 21
119.349980
 31
0.0
  0
LINE
  5
10c
100
AcDbEntity
  8
0
 62
7
100
AcDbLine
 10
60.150050
 20
119.349980
 30
0.0
 11
64.350053
 21
119.349980
 31
0.0
  0
LINE
  5
10d
100
AcDbEntity
  8
0
 62
7
100
AcDbLine
 10
64.350053
 20
119.349980
 30
0.0
 11
64.350053
 21
109.349972
 31
0.0
  0
LINE
  5
10e
100
AcDbEntity
  8
0
 62
7
100
AcDbLine
 10
64.350053
 20
109.349972
 30
0.0
 11
60.150050
 21
109.349972
 31
0.0
  0
LINE
  5
10f
100
AcDbEntity
  8
0
 62
7
100
AcDbLine
 10
60.150050
 20
109.349972
 30
0.0
 11
60.150050
 21
101.349965
 31
0.0
  0
LINE
  5
110
100
AcDbEntity
  8
0
 62
7
100
AcDbLine
 10
60.150050
 20
101.349965
 30
0.0
 11
64.350053
 21
101.349965
 31
0.0
  0
LINE
  5
111
100
AcDbEntity
  8
0
 62
7
100
AcDbLine
 10
64.350053
 20
101.349965
 30
0.0
 11
64.350053
 21
91.349957
 31
0.0
  0
LINE
  5
112
100
AcDbEntity
  8
0
 62
7
100
AcDbLine
 10
64.350053
 20
91.349957
 30
0.0
 11
51.350042
 21
91.349957
 31
0.0
  0
LINE
  5
113
100
AcDbEntity
  8
0
 62
7
100
AcDbLine
 10
51.350042
 20
91.349957
 30
0.0
 11
51.350042
 21
95.549960
 31
0.0
  0
LINE
  5
114
100
AcDbEntity
  8
0
 62
7
100
AcDbLine
 10
51.350042
 20
95.549960
 30
0.0
 11
40.350033
 21
95.549960
 31
0.0
  0
LINE
  5
115
100
AcDbEntity
  8
0
 62
7
100
AcDbLine
 10
40.350033
 20
95.549960
 30
0.0
 11
40.350033
 21
91.349957
 31
0.0
  0
LINE
  5
116
100
AcDbEntity
  8
0
 62
7
100
AcDbLine
 10
40.350033
 20
91.349957
 30
0.0
 11
30.350025
 21
91.349957
 31
0.0
  0
LINE
  5
117
100
AcDbEntity
  8
0
 62
7
100
AcDbLine
 10
30.350025
 20
91.349957
 30
0.0
 11
30.350025
 21
95.549960
 31
0.0
  0
LINE
  5
118
100
AcDbEntity
  8
0
 62
7
100
AcDbLine
 10
30.350025
 20
95.549960
 30
0.0
 11
19.350016
 21
95.549960
 31
0.0
  0
LINE
  5
119
100
AcDbEntity
  8
0
 62
7
100
AcDbLine
 10
19.350016
 20
95.549960
 30
0.0
 11
19.350016
 21
91.349957
 31
0.0
  0
LINE
  5
11a
100
AcDbEntity
  8
0
 62
7
100
AcDbLine
 10
19.350016
 20
91.349957
 30
0.0
 11
6.350005
 21
91.349957
 31
0.0
  0
LINE
  5
11b
100
AcDbEntity
  8
0
 62
7
100
AcDbLine
 10
6.350005
 20
91.349957
 30
0.0
 11
6.350005
 21
101.349965
 31
0.0
  0
LINE
  5
11c
100
AcDbEntity
  8
0
 62
7
100
AcDbLine
 10
6.350005
 20
101.349965
 30
0.0
 11
10.550009
 21
101.349965
 31
0.0
  0
LINE
  5
11d
100
AcDbEntity
  8
0
 62
7
100
AcDbLine
 10
10.550009
 20
101.349965
 30
0.0
 11
10.550009
 21
109.349972
 31
0.0
  0
LINE
  5
11e
100
AcDbEntity
  8
0
 62
7
100
AcDbLine
 10
10.550009
 20
109.349972
 30
0.0
 11
6.350005
 21
109.349972
 31
0.0
  0
LINE
  5
11f
100
AcDbEntity
  8
0
 62
7
100
AcDbLine
 10
6.350005
 20
109.349972
 30
0.0
 11
6.350005
 21
119.349980
 31
0.0
  0
LINE
  5
120
100
AcDbEntity
  8
0
 62
7
100
AcDbLine
 10
6.350005
 20
119.349980
 30
0.0
 11
10.550009
 21
119.349980
 31
0.0
  0
LINE
  5
121
100
AcDbEntity
  8
0
 62
7
100
AcDbLine
 10
10.550009
 20
119.349980
 30
0.0
 11
10.550009
 21
127.349987
 31
0.0
  0
LINE
  5
122
100
AcDbEntity
  8
0
 62
7
100
AcDbLine
 10
10.550009
 20
127.349987
 30
0.0
 11
6.350005
 21
127.349987
 31
0.0
  0
LINE
  5
123
100
AcDbEntity
  8
0
 62
7
100
AcDbLine
 10
6.350005
 20
127.349987
 30
0.0
 11
6.350005
 21
137.349995
 31
0.0
  0
LINE
  5
124
100
AcDbEntity
  8
0
 62
7
100
AcDbLine
 10
64.350053
 20
137.349995
 30
0.0
 11
77.350064
 21
137.349995
 31
0.0
  0
LINE
  5
125
100
AcDbEntity
  8
0
 62
7
100
AcDbLine
 10
77.350064
 20
137.349995
 30
0.0
 11
77.350064
 21
133.149991
 31
0.0
  0
LINE
  5
126
100
AcDbEntity
  8
0
 62
7
100
AcDbLine
 10
77.350064
 20
133.149991
 30
0.0
 11
88.350073
 21
133.149991
 31
0.0
  0
LINE
  5
127
100
AcDbEntity
  8
0
 62
7
100
AcDbLine
 10
88.350073
 20
133.149991
 30
0.0
 11
88.350073
 21
137.349995
 31
0.0
  0
LINE
  5
128
100
AcDbEntity
  8
0
 62
7
100
AcDbLine
 10
88.350073
 20
137.349995
 30
0.0
 11
98.350081
 21
137.349995
 31
0.0
  0
LINE
  5
129
100
AcDbEntity
  8
0
 62
7
100
AcDbLine
 10
98.350081
 20
137.349995
 30
0.0
 11
98.350081
 21
133.149991
 31
0.0
  0
LINE
  5
12a
100
AcDbEntity
  8
0
 62
7
100
AcDbLine
 10
98.350081
 20
133.149991
 30
0.0
 11
109.350090
 21
133.149991
 31
0.0
  0
LINE
  5
12b
100
AcDbEntity
  8
0
 62
7
100
AcDbLine
 10
109.350090
 20
133.149991
 30
0.0
 11
109.350090
 21
137.349995
 31
0.0
  0
LINE
  5
12c
100
AcDbEntity
  8
0
 62
7
100
AcDbLine
 10
109.350090
 20
137.349995
 30
0.0
 11
122.350101
 21
137.349995
 31
0.0
  0
LINE
  5
12d
100
AcDbEntity
  8
0
 62
7
100
AcDbLine
 10
122.350101
 20
137.349995
 30
0.0
 11
122.350101
 21
127.349987
 31
0.0
  0
LINE
  5
12e
100
AcDbEntity
  8
0
 62
7
100
AcDbLine
 10
122.350101
 20
127.349987
 30
0.0
 11
118.150098
 21
127.349987
 31
0.0
  0
LINE
  5
12f
100
AcDbEntity
  8
0
 62
7
100
AcDbLine
 10
118.150098
 20
127.349987
 30
0.0
 11
118.150098
 21
119.349980
 31
0.0
  0
LINE
  5
130
100
AcDbEntity
  8
0
 62
7
100
AcDbLine
 10
118.150098
 20
119.349980
 30
0.0
 11
122.350101
 21
119.349980
 31
0.0
  0
LINE
  5
131
100
AcDbEntity
  8
0
 62
7
100
AcDbLine
 10
122.350101
 20
119.349980
 30
0.0
 11
122.350101
 21
109.349972
 31
0.0
  0
LINE
  5
132
100
AcDbEntity
  8
0
 62
7
100
AcDbLine
 10
122.350101
 20
109.349972
 30
0.0
 11
118.150098
 21
109.349972
 31
0.0
  0
LINE
  5
133
100
AcDbEntity
  8
0
 62
7
100
AcDbLine
 10
118.150098
 20
109.349972
 30
0.0
 11
118.150098
 21
101.349965
 31
0.0
  0
LINE
  5
134
100
AcDbEntity
  8
0
 62
7
100
AcDbLine
 10
118.150098
 20
101.349965
 30
0.0
 11
122.350101
 21
101.349965
 31
0.0
  0
LINE
  5
135
100
AcDbEntity
  8
0
 62
7
100
AcDbLine
 10
122.350101
 20
101.349965
 30
0.0
 11
122.350101
 21
91.349957
 31
0.0
  0
LINE
  5
136
100
AcDbEntity
  8
0
 62
7
100
AcDbLine
 10
122.350101
 20
91.349957
 30
0.0
 11
109.350090
 21
91.349957
 31
0.0
  0
LINE
  5
137
100
AcDbEntity
  8
0
 62
7
100
AcDbLine
 10
109.350090
 20
91.349957
 30
0.0
 11
109.350090
 21
95.549960
 31
0.0
  0
LINE
  5
138
100
AcDbEntity
  8
0
 62
7
100
AcDbLine
 10
109.350090
 20
95.549960
 30
0.0
 11
98.350081
 21
95.549960
 31
0.0
  0
LINE
  5
139
100
AcDbEntity
  8
0
 62
7
100
AcDbLine
 10
98.350081
 20
95.549960
 30
0.0
 11
98.350081
 21
91.349957
 31
0.0
  0
LINE
  5
13a
100
AcDbEntity
  8
0
 62
7
100
AcDbLine
 10
98.350081
 20
91.349957
 30
0.0
 11
88.350073
 21
91.349957
 31
0.0
  0
LINE
  5
13b
100
AcDbEntity
  8
0
 62
7
100
AcDbLine
 10
88.350073
 20
91.349957
 30
0.0
 11
88.350073
 21
95.549960
 31
0.0
  0
LINE
  5
13c
100
AcDbEntity
  8
0
 62
7
100
AcDbLine
 10
88.350073
 20
95.549960
 30
0.0
 11
77.350064
 21
95.549960
 31
0.0
  0
LINE
  5
13d
100
AcDbEntity
  8
0
 62
7
100
AcDbLine
 10
77.350064
 20
95.549960
 30
0.0
 11
77.350064
 21
91.349957
 31
0.0
  0
LINE
  5
13e
100
AcDbEntity
  8
0
 62
7
100
AcDbLine
 10
77.350064
 20
91.349957
 30
0.0
 11
64.350053
 21
91.349957
 31
0.0
  0
LINE
  5
13f
100
AcDbEntity
  8
0
 62
7
100
AcDbLine
 10
64.350053
 20
91.349957
 30
0.0
 11
64.350053
 21
101.349965
 31
0.0
  0
LINE
  5
140
100
AcDbEntity
  8
0
 62
7
100
AcDbLine
 10
64.350053
 20
101.349965
 30
0.0
 11
68.550056
 21
101.349965
 31
0.0
  0
LINE
  5
141
100
AcDbEntity
  8
0
 62
7
100
AcDbLine
 10
68.550056
 20
101.349965
 30
0.0
 11
68.550056
 21
109.349972
 31
0.0
  0
LINE
  5
142
100
AcDbEntity
  8
0
 62
7
100
AcDbLine
 10
68.550056
 20
109.349972
 30
0.0
 11
64.350053
 21
109.349972
 31
0.0
  0
LINE
  5
143
100
AcDbEntity
  8
0
 62
7
100
AcDbLine
 10
64.350053
 20
109.349972
 30
0.0
 11
64.350053
 21
119.349980
 31
0.0
  0
LINE
  5
144
100
AcDbEntity
  8
0
 62
7
100
AcDbLine
 10
64.350053
 20
119.349980
 30
0.0
 11
68.550056
 21
119.349980
 31
0.0
  0
LINE
  5
145
100
AcDbEntity
  8
0
 62
7
100
AcDbLine
 10
68.550056
 20
119.349980
 30
0.0
 11
68.550056
 21
127.349987
 31
0.0
  0
LINE
  5
146
100
AcDbEntity
  8
0
 62
7
100
AcDbLine
 10
68.550056
 20
127.349987
 30
0.0
 11
64.350053
 21
127.349987
 31
0.0
  0
LINE
  5
147
100
AcDbEntity
  8
0
 62
7
100
AcDbLine
 10
64.350053
 20
127.349987
 30
0.0
 11
64.350053
 21
137.349995
 31
0.0
  0
LINE
  5
148
100
AcDbEntity
  8
0
 62
7
100
AcDbLine
 10
126.550104
 20
137.349995
 30
0.0
 11
138.100113
 21
137.349995
 31
0.0
  0
LINE
  5
149
100
AcDbEntity
  8
0
 62
7
100
AcDbLine
 10
138.100113
 20
137.349995
 30
0.0
 11
138.100113
 21
133.149991
 31
0.0
  0
LINE
  5
14a
100
AcDbEntity
  8
0
 62
7
100
AcDbLine
 10
138.100113
 20
133.149991
 30
0.0
 11
151.850123
 21
133.149991
 31
0.0
  0
LINE
  5
14b
100
AcDbEntity
  8
0
 62
7
100
AcDbLine
 10
151.850123
 20
133.149991
 30
0.0
 11
151.850123
 21
137.349995
 31
0.0
  0
LINE
  5
14c
100
AcDbEntity
  8
0
 62
7
100
AcDbLine
 10
151.850123
 20
137.349995
 30
0.0
 11
161.850132
 21
137.349995
 31
0.0
  0
LINE
  5
14d
100
AcDbEntity
  8
0
 62
7
100
AcDbLine
 10
161.850132
 20
137.349995
 30
0.0
 11
161.850132
 21
133.149991
 31
0.0
  0
LINE
  5
14e
100
AcDbEntity
  8
0
 62
7
100
AcDbLine
 10
161.850132
 20
133.149991
 30
0.0
 11
169.850138
 21
133.149991
 31
0.0
  0
LINE
  5
14f
100
AcDbEntity
  8
0
 62
7
100
AcDbLine
 10
169.850138
 20
133.149991
 30
0.0
 11
169.850138
 21
137.349995
 31
0.0
  0
LINE
  5
150
100
AcDbEntity
  8
0
 62
7
100
AcDbLine
 10
169.850138
 20
137.349995
 30
0.0
 11
179.850146
 21
137.349995
 31
0.0
  0
LINE
  5
151
100
AcDbEntity
  8
0
 62
7
100
AcDbLine
 10
179.850146
 20
137.349995
 30
0.0
 11
179.850146
 21
133.149991
 31
0.0
  0
LINE
  5
152
100
AcDbEntity
  8
0
 62
7
100
AcDbLine
 10
179.850146
 20
133.149991
 30
0.0
 11
193.600160
 21
133.149991
 31
0.0
  0
LINE
  5
153
100
AcDbEntity
  8
0
 62
7
100
AcDbLine
 10
193.600160
 20
133.149991
 30
0.0
 11
193.600160
 21
137.349995
 31
0.0
  0
LINE
  5
154
100
AcDbEntity
  8
0
 62
7
100
AcDbLine
 10
193.600160
 20
137.349995
 30
0.0
 11
205.150169
 21
137.349995
 31
0.0
  0
LINE
  5
155
100
AcDbEntity
  8
0
 62
7
100
AcDbLine
 10
205.150169
 20
137.349995
 30
0.0
 11
205.150169
 21
128.349987
 31
0.0
  0
LINE
  5
156
100
AcDbEntity
  8
0
 62
7
100
AcDbLine
 10
205.150169
 20
128.349987
 30
0.0
 11
209.350172
 21
128.349987
 31
0.0
  0
LINE
  5
157
100
AcDbEntity
  8
0
 62
7
100
AcDbLine
 10
209.350172
 20
128.349987
 30
0.0
 11
209.350172
 21
118.349979
 31
0.0
  0
LINE
  5
158
100
AcDbEntity
  8
0
 62
7
100
AcDbLine
 10
209.350172
 20
118.349979
 30
0.0
 11
205.150169
 21
118.349979
 31
0.0
  0
LINE
  5
159
100
AcDbEntity
  8
0
 62
7
100
AcDbLine
 10
205.150169
 20
118.349979
 30
0.0
 11
205.150169
 21
110.349973
 31
0.0
  0
LINE
  5
15a
100
AcDbEntity
  8
0
 62
7
100
AcDbLine
 10
205.150169
 20
110.349973
 30
0.0
 11
209.350172
 21
110.349973
 31
0.0
  0
LINE
  5
15b
100
AcDbEntity
  8
0
 62
7
100
AcDbLine
 10
209.350172
 20
110.349973
 30
0.0
 11
209.350172
 21
100.349964
 31
0.0
  0
LINE
  5
15c
100
AcDbEntity
  8
0
 62
7
100
AcDbLine
 10
209.350172
 20
100.349964
 30
0.0
 11
205.150169
 21
100.349964
 31
0.0
  0
LINE
  5
15d
100
AcDbEntity
  8
0
 62
7
100
AcDbLine
 10
205.150169
 20
100.349964
 30
0.0
 11
205.150169
 21
91.349957
 31
0.0
  0
LINE
  5
15e
100
AcDbEntity
  8
0
 62
7
100
AcDbLine
 10
205.150169
 20
91.349957
 30
0.0
 11
193.600160
 21
91.349957
 31
0.0
  0
LINE
  5
15f
100
AcDbEntity
  8
0
 62
7
100
AcDbLine
 10
193.600160
 20
91.349957
 30
0.0
 11
193.600160
 21
95.549960
 31
0.0
  0
LINE
  5
160
100
AcDbEntity
  8
0
 62
7
100
AcDbLine
 10
193.600160
 20
95.549960
 30
0.0
 11
179.850146
 21
95.549960
 31
0.0
  0
LINE
  5
161
100
AcDbEntity
  8
0
 62
7
100
AcDbLine
 10
179.850146
 20
95.549960
 30
0.0
 11
179.850146
 21
91.349957
 31
0.0
  0
LINE
  5
162
100
AcDbEntity
  8
0
 62
7
100
AcDbLine
 10
179.850146
 20
91.349957
 30
0.0
 11
169.850138
 21
91.349957
 31
0.0
  0
LINE
  5
163
100
AcDbEntity
  8
0
 62
7
100
AcDbLine
 10
169.850138
 20
91.349957
 30
0.0
 11
169.850138
 21
95.549960
 31
0.0
  0
LINE
  5
164
100
AcDbEntity
  8
0
 62
7
100
AcDbLine
 10
169.850138
 20
95.549960
 30
0.0
 11
161.850132
 21
95.549960
 31
0.0
  0
LINE
  5
165
100
AcDbEntity
  8
0
 62
7
100
AcDbLine
 10
161.850132
 20
95.549960
 30
0.0
 11
161.850132
 21
91.349957
 31
0.0
  0
LINE
  5
166
100
AcDbEntity
  8
0
 62
7
100
AcDbLine
 10
161.850132
 20
91.349957
 30
0.0
 11
151.850123
 21
91.349957
 31
0.0
  0
LINE
  5
167
100
AcDbEntity
  8
0
 62
7
100
AcDbLine
 10
151.850123
 20
91.349957
 30
0.0
 11
151.850123
 21
95.549960
 31
0.0
  0
LINE
  5
168
100
AcDbEntity
  8
0
 62
7
100
AcDbLine
 10
151.850123
 20
95.549960
 30
0.0
 11
138.100113
 21
95.549960
 31
0.0
  0
LINE
  5
169
100
AcDbEntity
  8
0
 62
7
100
AcDbLine
 10
138.100113
 20
95.549960
 30
0.0
 11
138.100113
 21
91.349957
 31
0.0
  0
LINE
  5
16a
100
AcDbEntity
  8
0
 62
7
100
AcDbLine
 10
138.100113
 20
91.349957
 30
0.0
 11
126.550104
 21
91.349957
 31
0.0
  0
LINE
  5
16b
100
AcDbEntity
  8
0
 62
7
100
AcDbLine
 10
126.550104
 20
91.349957
 30
0.0
 11
126.550104
 21
100.349964
 31
0.0
  0
LINE
  5
16c
100
AcDbEntity
  8
0
 62
7
100
AcDbLine
 10
126.550104
 20
100.349964
 30
0.0
 11
122.350101
 21
100.349964
 31
0.0
  0
LINE
  5
16d
100
AcDbEntity
  8
0
 62
7
100
AcDbLine
 10
122.350101
 20
100.349964
 30
0.0
 11
122.350101
 21
110.349973
 31
0.0
  0
LINE
  5
16e
100
AcDbEntity
  8
0
 62
7
100
AcDbLine
 10
122.350101
 20
110.349973
 30
0.0
 11
126.550104
 21
110.349973
 31
0.0
  0
LINE
  5
16f
100
AcDbEntity
  8
0
 62
7
100
AcDbLine
 10
126.550104
 20
110.349973
 30
0.0
 11
126.550104
 21
118.349979
 31
0.0
  0
LINE
  5
170
100
AcDbEntity
  8
0
 62
7
100
AcDbLine
 10
126.550104
 20
118.349979
 30
0.0
 11
122.350101
 21
118.349979
 31
0.0
  0
LINE
  5
171
100
AcDbEntity
  8
0
 62
7
100
AcDbLine
 10
122.350101
 20
118.349979
 30
0.0
 11
122.350101
 21
128.349987
 31
0.0
  0
LINE
  5
172
100
AcDbEntity
  8
0
 62
7
100
AcDbLine
 10
122.350101
 20
128.349987
 30
0.0
 11
126.550104
 21
128.349987
 31
0.0
  0
LINE
  5
173
100
AcDbEntity
  8
0
 62
7
100
AcDbLine
 10
126.550104
 20
128.349987
 30
0.0
 11
126.550104
 21
137.349995
 31
0.0
  0
LINE
  5
174
100
AcDbEntity
  8
0
 62
7
100
AcDbLine
 10
126.550104
 20
91.349957
 30
0.0
 11
138.100113
 21
91.349957
 31
0.0
  0
LINE
  5
175
100
AcDbEntity
  8
0
 62
7
100
AcDbLine
 10
138.100113
 20
91.349957
 30
0.0
 11
138.100113
 21
87.149954
 31
0.0
  0
LINE
  5
176
100
AcDbEntity
  8
0
 62
7
100
AcDbLine
 10
138.100113
 20
87.149954
 30
0.0
 11
151.850123
 21
87.149954
 31
0.0
  0
LINE
  5
177
100
AcDbEntity
  8
0
 62
7
100
AcDbLine
 10
151.850123
 20
87.149954
 30
0.0
 11
151.850123
 21
91.349957
 31
0.0
  0
LINE
  5
178
100
AcDbEntity
  8
0
 62
7
100
AcDbLine
 10
151.850123
 20
91.349957
 30
0.0
 11
161.850132
 21
91.349957
 31
0.0
  0
LINE
  5
179
100
AcDbEntity
  8
0
 62
7
100
AcDbLine
 10
161.850132
 20
91.349957
 30
0.0
 11
161.850132
 21
87.149954
 31
0.0
  0
LINE
  5
17a
100
AcDbEntity
  8
0
 62
7
100
AcDbLine
 10
161.850132
 20
87.149954
 30
0.0
 11
169.850138
 21
87.149954
 31
0.0
  0
LINE
  5
17b
100
AcDbEntity
  8
0
 62
7
100
AcDbLine
 10
169.850138
 20
87.149954
 30
0.0
 11
169.850138
 21
91.349957
 31
0.0
  0
LINE
  5
17c
100
AcDbEntity
  8
0
 62
7
100
AcDbLine
 10
169.850138
 20
91.349957
 30
0.0
 11
179.850146
 21
91.349957
 31
0.0
  0
LINE
  5
17d
100
AcDbEntity
  8
0
 62
7
100
AcDbLine
 10
179.850146
 20
91.349957
 30
0.0
 11
179.850146
 21
87.149954
 31
0.0
  0
LINE
  5
17e
100
AcDbEntity
  8
0
 62
7
100
AcDbLine
 10
179.850146
 20
87.149954
 30
0.0
 11
193.600160
 21
87.149954
 31
0.0
  0
LINE
  5
17f
100
AcDbEntity
  8
0
 62
7
100
AcDbLine
 10
193.600160
 20
87.149954
 30
0.0
 11
193.600160
 21
91.349957
 31
0.0
  0
LINE
  5
180
100
AcDbEntity
  8
0
 62
7
100
AcDbLine
 10
193.600160
 20
91.349957
 30
0.0
 11
205.150169
 21
91.349957
 31
0.0
  0
LINE
  5
181
100
AcDbEntity
  8
0
 62
7
100
AcDbLine
 10
205.150169
 20
91.349957
 30
0.0
 11
205.150169
 21
82.349950
 31
0.0
  0
LINE
  5
182
100
AcDbEntity
  8
0
 62
7
100
AcDbLine
 10
205.150169
 20
82.349950
 30
0.0
 11
209.350172
 21
82.349950
 31
0.0
  0
LINE
  5
183
100
AcDbEntity
  8
0
 62
7
100
AcDbLine
 10
209.350172
 20
82.349950
 30
0.0
 11
209.350172
 21
72.349941
 31
0.0
  0
LINE
  5
184
100
AcDbEntity
  8
0
 62
7
100
AcDbLine
 10
209.350172
 20
72.349941
 30
0.0
 11
205.150169
 21
72.349941
 31
0.0
  0
LINE
  5
185
100
AcDbEntity
  8
0
 62
7
100
AcDbLine
 10
205.150169
 20
72.349941
 30
0.0
 11
205.150169
 21
64.349935
 31
0.0
  0
LINE
  5
186
100
AcDbEntity
  8
0
 62
7
100
AcDbLine
 10
205.150169
 20
64.349935
 30
0.0
 11
209.350172
 21
64.349935
 31
0.0
  0
LINE
  5
187
100
AcDbEntity
  8
0
 62
7
100
AcDbLine
 10
209.350172
 20
64.349935
 30
0.0
 11
209.350172
 21
54.349927
 31
0.0
  0
LINE
  5
188
100
AcDbEntity
  8
0
 62
7
100
AcDbLine
 10
209.350172
 20
54.349927
 30
0.0
 11
205.150169
 21
54.349927
 31
0.0
  0
LINE
  5
189
100
AcDbEntity
  8
0
 62
7
100
AcDbLine
 10
205.150169
 20
54.349927
 30
0.0
 11
205.150169
 21
45.349919
 31
0.0
  0
LINE
  5
18a
100
AcDbEntity
  8
0
 62
7
100
AcDbLine
 10
205.150169
 20
45.349919
 30
0.0
 11
193.600160
 21
45.349919
 31
0.0
  0
LINE
  5
18b
100
AcDbEntity
  8
0
 62
7
100
AcDbLine
 10
193.600160
 20
45.349919
 30
0.0
 11
193.600160
 21
49.549922
 31
0.0
  0
LINE
  5
18c
100
AcDbEntity
  8
0
 62
7
100
AcDbLine
 10
193.600160
 20
49.549922
 30
0.0
 11
179.850146
 21
49.549922
 31
0.0
  0
LINE
  5
18d
100
AcDbEntity
  8
0
 62
7
100
AcDbLine
 10
179.850146
 20
49.549922
 30
0.0
 11
179.850146
 21
45.349919
 31
0.0
  0
LINE
  5
18e
100
AcDbEntity
  8
0
 62
7
100
AcDbLine
 10
179.850146
 20
45.349919
 30
0.0
 11
169.850138
 21
45.349919
 31
0.0
  0
LINE
  5
18f
100
AcDbEntity
  8
0
 62
7
100
AcDbLine
 10
169.850138
 20
45.349919
 30
0.0
 11
169.850138
 21
49.549922
 31
0.0
  0
LINE
  5
190
100
AcDbEntity
  8
0
 62
7
100
AcDbLine
 10
169.850138
 20
49.549922
 30
0.0
 11
161.850132
 21
49.549922
 31
0.0
  0
LINE
  5
191
100
AcDbEntity
  8
0
 62
7
100
AcDbLine
 10
161.850132
 20
49.549922
 30
0.0
 11
161.850132
 21
45.349919
 31
0.0
  0
LINE
  5
192
100
AcDbEntity
  8
0
 62
7
100
AcDbLine
 10
161.850132
 20
45.349919
 30
0.0
 11
151.850123
 21
45.349919
 31
0.0
  0
LINE
  5
193
100
AcDbEntity
  8
0
 62
7
100
AcDbLine
 10
151.850123
 20
45.349919
 30
0.0
 11
151.850123
 21
49.549922
 31
0.0
  0
LINE
  5
194
100
AcDbEntity
  8
0
 62
7
100
AcDbLine
 10
151.850123
 20
49.549922
 30
0.0
 11
138.100113
 21
49.549922
 31
0.0
  0
LINE
  5
195
100
AcDbEntity
  8
0
 62
7
100
AcDbLine
 10
138.100113
 20
49.549922
 30
0.0
 11
138.100113
 21
45.349919
 31
0.0
  0
LINE
  5
196
100
AcDbEntity
  8
0
 62
7
100
AcDbLine
 10
138.100113
 20
45.349919
 30
0.0
 11
126.550104
 21
45.349919
 31
0.0
  0
LINE
  5
197
100
AcDbEntity
  8
0
 62
7
100
AcDbLine
 10
126.550104
 20
45.349919
 30
0.0
 11
126.550104
 21
54.349927
 31
0.0
  0
LINE
  5
198
100
AcDbEntity
  8
0
 62
7
100
AcDbLine
 10
126.550104
 20
54.349927
 30
0.0
 11
122.350101
 21
54.349927
 31
0.0
  0
LINE
  5
199
100
AcDbEntity
  8
0
 62
7
100
AcDbLine
 10
122.350101
 20
54.349927
 30
0.0
 11
122.350101
 21
64.349935
 31
0.0
  0
LINE
  5
19a
100
AcDbEntity
  8
0
 62
7
100
AcDbLine
 10
122.350101
 20
64.349935
 30
0.0
 11
126.550104
 21
64.349935
 31
0.0
  0
LINE
  5
19b
100
AcDbEntity
  8
0
 62
7
100
AcDbLine
 10
126.550104
 20
64.349935
 30
0.0
 11
126.550104
 21
72.349941
 31
0.0
  0
LINE
  5
19c
100
AcDbEntity
  8
0
 62
7
100
AcDbLine
 10
126.550104
 20
72.349941
 30
0.0
 11
122.350101
 21
72.349941
 31
0.0
  0
LINE
  5
19d
100
AcDbEntity
  8
0
 62
7
100
AcDbLine
 10
122.350101
 20
72.349941
 30
0.0
 11
122.350101
 21
82.349950
 31
0.0
  0
LINE
  5
19e
100
AcDbEntity
  8
0
 62
7
100
AcDbLine
 10
122.350101
 20
82.349950
 30
0.0
 11
126.550104
 21
82.349950
 31
0.0
  0
LINE
  5
19f
100
AcDbEntity
  8
0
 62
7
100
AcDbLine
 10
126.550104
 20
82.349950
 30
0.0
 11
126.550104
 21
91.349957
 31
0.0
  0
LINE
  5
1a0
100
AcDbEntity
  8
0
 62
7
100
AcDbLine
 10
10.550009
 20
87.149954
 30
0.0
 11
18.350015
 21
87.149954
 31
0.0
  0
LINE
  5
1a1
100
AcDbEntity
  8
0
 62
7
100
AcDbLine
 10
18.350015
 20
87.149954
 30
0.0
 11
18.350015
 21
91.349957
 31
0.0
  0
LINE
  5
1a2
100
AcDbEntity
  8
0
 62
7
100
AcDbLine
 10
18.350015
 20
91.349957
 30
0.0
 11
31.350026
 21
91.349957
 31
0.0
  0
LINE
  5
1a3
100
AcDbEntity
  8
0
 62
7
100
AcDbLine
 10
31.350026
 20
91.349957
 30
0.0
 11
31.350026
 21
87.149954
 31
0.0
  0
LINE
  5
1a4
100
AcDbEntity
  8
0
 62
7
100
AcDbLine
 10
31.350026
 20
87.149954
 30
0.0
 11
39.350032
 21
87.149954
 31
0.0
  0
LINE
  5
1a5
100
AcDbEntity
  8
0
 62
7
100
AcDbLine
 10
39.350032
 20
87.149954
 30
0.0
 11
39.350032
 21
91.349957
 31
0.0
  0
LINE
  5
1a6
100
AcDbEntity
  8
0
 62
7
100
AcDbLine
 10
39.350032
 20
91.349957
 30
0.0
 11
52.350043
 21
91.349957
 31
0.0
  0
LINE
  5
1a7
100
AcDbEntity
  8
0
 62
7
100
AcDbLine
 10
52.350043
 20
91.349957
 30
0.0
 11
52.350043
 21
87.149954
 31
0.0
  0
LINE
  5
1a8
100
AcDbEntity
  8
0
 62
7
100
AcDbLine
 10
52.350043
 20
87.149954
 30
0.0
 11
60.150050
 21
87.149954
 31
0.0
  0
LINE
  5
1a9
100
AcDbEntity
  8
0
 62
7
100
AcDbLine
 10
60.150050
 20
87.149954
 30
0.0
 11
60.150050
 21
76.599945
 31
0.0
  0
LINE
  5
1aa
100
AcDbEntity
  8
0
 62
7
100
AcDbLine
 10
60.150050
 20
76.599945
 30
0.0
 11
64.350053
 21
76.599945
 31
0.0
  0
LINE
  5
1ab
100
AcDbEntity
  8
0
 62
7
100
AcDbLine
 10
64.350053
 20
76.599945
 30
0.0
 11
64.350053
 21
60.849933
 31
0.0
  0
LINE
  5
1ac
100
AcDbEntity
  8
0
 62
7
100
AcDbLine
 10
64.350053
 20
60.849933
 30
0.0
 11
60.150050
 21
60.849933
 31
0.0
  0
LINE
  5
1ad
100
AcDbEntity
  8
0
 62
7
100
AcDbLine
 10
60.150050
 20
60.849933
 30
0.0
 11
60.150050
 21
52.849927
 31
0.0
  0
LINE
  5
1ae
100
AcDbEntity
  8
0
 62
7
100
AcDbLine
 10
60.150050
 20
52.849927
 30
0.0
 11
64.350053
 21
52.849927
 31
0.0
  0
LINE
  5
1af
100
AcDbEntity
  8
0
 62
7
100
AcDbLine
 10
64.350053
 20
52.849927
 30
0.0
 11
64.350053
 21
42.849918
 31
0.0
  0
LINE
  5
1b0
100
AcDbEntity
  8
0
 62
7
100
AcDbLine
 10
64.350053
 20
42.849918
 30
0.0
 11
60.150050
 21
42.849918
 31
0.0
  0
LINE
  5
1b1
100
AcDbEntity
  8
0
 62
7
100
AcDbLine
 10
60.150050
 20
42.849918
 30
0.0
 11
60.150050
 21
34.849912
 31
0.0
  0
LINE
  5
1b2
100
AcDbEntity
  8
0
 62
7
100
AcDbLine
 10
60.150050
 20
34.849912
 30
0.0
 11
64.350053
 21
34.849912
 31
0.0
  0
LINE
  5
1b3
100
AcDbEntity
  8
0
 62
7
100
AcDbLine
 10
64.350053
 20
34.849912
 30
0.0
 11
64.350053
 21
19.099897
 31
0.0
  0
LINE
  5
1b4
100
AcDbEntity
  8
0
 62
7
100
AcDbLine
 10
64.350053
 20
19.099897
 30
0.0
 11
60.150050
 21
19.099897
 31
0.0
  0
LINE
  5
1b5
100
AcDbEntity
  8
0
 62
7
100
AcDbLine
 10
60.150050
 20
19.099897
 30
0.0
 11
60.150050
 21
8.549888
 31
0.0
  0
LINE
  5
1b6
100
AcDbEntity
  8
0
 62
7
100
AcDbLine
 10
60.150050
 20
8.549888
 30
0.0
 11
52.350043
 21
8.549888
 31
0.0
  0
LINE
  5
1b7
100
AcDbEntity
  8
0
 62
7
100
AcDbLine
 10
52.350043
 20
8.549888
 30
0.0
 11
52.350043
 21
4.349885
 31
0.0
  0
LINE
  5
1b8
100
AcDbEntity
  8
0
 62
7
100
AcDbLine
 10
52.350043
 20
4.349885
 30
0.0
 11
39.350032
 21
4.349885
 31
0.0
  0
LINE
  5
1b9
100
AcDbEntity
  8
0
 62
7
100
AcDbLine
 10
39.350032
 20
4.349885
 30
0.0
 11
39.350032
 21
8.549888
 31
0.0
  0
LINE
  5
1ba
100
AcDbEntity
  8
0
 62
7
100
AcDbLine
 10
39.350032
 20
8.549888
 30
0.0
 11
31.350026
 21
8.549888
 31
0.0
  0
LINE
  5
1bb
100
AcDbEntity
  8
0
 62
7
100
AcDbLine
 10
31.350026
 20
8.549888
 30
0.0
 11
31.350026
 21
4.349885
 31
0.0
  0
LINE
  5
1bc
100
AcDbEntity
  8
0
 62
7
100
AcDbLine
 10
31.350026
 20
4.349885
 30
0.0
 11
18.350015
 21
4.349885
 31
0.0
  0
LINE
  5
1bd
100
AcDbEntity
  8
0
 62
7
100
AcDbLine
 10
18.350015
 20
4.349885
 30
0.0
 11
18.350015
 21
8.549888
 31
0.0
  0
LINE
  5
1be
100
AcDbEntity
  8
0
 62
7
100
AcDbLine
 10
18.350015
 20
8.549888
 30
0.0
 11
10.550009
 21
8.549888
 31
0.0
  0
LINE
  5
1bf
100
AcDbEntity
  8
0
 62
7
100
AcDbLine
 10
10.550009
 20
8.549888
 30
0.0
 11
10.550009
 21
19.099897
 31
0.0
  0
LINE
  5
1c0
100
AcDbEntity
  8
0
 62
7
100
AcDbLine
 10
10.550009
 20
19.099897
 30
0.0
 11
6.350005
 21
19.099897
 31
0.0
  0
LINE
  5
1c1
100
AcDbEntity
  8
0
 62
7
100
AcDbLine
 10
6.350005
 20
19.099897
 30
0.0
 11
6.350005
 21
34.849912
 31
0.0
  0
LINE
  5
1c2
100
AcDbEntity
  8
0
 62
7
100
AcDbLine
 10
6.350005
 20
34.849912
 30
0.0
 11
10.550009
 21
34.849912
 31
0.0
  0
LINE
  5
1c3
100
AcDbEntity
  8
0
 62
7
100
AcDbLine
 10
10.550009
 20
34.849912
 30
0.0
 11
10.550009
 21
42.849918
 31
0.0
  0
LINE
  5
1c4
100
AcDbEntity
  8
0
 62
7
100
AcDbLine
 10
10.550009
 20
42.849918
 30
0.0
 11
6.350005
 21
42.849918
 31
0.0
  0
LINE
  5
1c5
100
AcDbEntity
  8
0
 62
7
100
AcDbLine
 10
6.350005
 20
42.849918
 30
0.0
 11
6.350005
 21
52.849927
 31
0.0
  0
LINE
  5
1c6
100
AcDbEntity
  8
0
 62
7
100
AcDbLine
 10
6.350005
 20
52.849927
 30
0.0
 11
10.550009
 21
52.849927
 31
0.0
  0
LINE
  5
1c7
100
AcDbEntity
  8
0
 62
7
100
AcDbLine
 10
10.550009
 20
52.849927
 30
0.0
 11
10.550009
 21
60.849933
 31
0.0
  0
LINE
  5
1c8
100
AcDbEntity
  8
0
 62
7
100
AcDbLine
 10
10.550009
 20
60.849933
 30
0.0
 11
6.350005
 21
60.849933
 31
0.0
  0
LINE
  5
1c9
100
AcDbEntity
  8
0
 62
7
100
AcDbLine
 10
6.350005
 20
60.849933
 30
0.0
 11
6.350005
 21
76.599945
 31
0.0
  0
LINE
  5
1ca
100
AcDbEntity
  8
0
 62
7
100
AcDbLine
 10
6.350005
 20
76.599945
 30
0.0
 11
10.550009
 21
76.599945
 31
0.0
  0
LINE
  5
1cb
100
AcDbEntity
  8
0
 62
7
100
AcDbLine
 10
10.550009
 20
76.599945
 30
0.0
 11
10.550009
 21
87.149954
 31
0.0
  0
LINE
  5
1cc
100
AcDbEntity
  8
0
 62
7
100
AcDbLine
 10
68.550056
 20
87.149954
 30
0.0
 11
76.350063
 21
87.149954
 31
0.0
  0
LINE
  5
1cd
100
AcDbEntity
  8
0
 62
7
100
AcDbLine
 10
76.350063
 20
87.149954
 30
0.0
 11
76.350063
 21
91.349957
 31
0.0
  0
LINE
  5
1ce
100
AcDbEntity
  8
0
 62
7
100
AcDbLine
 10
76.350063
 20
91.349957
 30
0.0
 11
89.350073
 21
91.349957
 31
0.0
  0
LINE
  5
1cf
100
AcDbEntity
  8
0
 62
7
100
AcDbLine
 10
89.350073
 20
91.349957
 30
0.0
 11
89.350073
 21
87.149954
 31
0.0
  0
LINE
  5
1d0
100
AcDbEntity
  8
0
 62
7
100
AcDbLine
 10
89.350073
 20
87.149954
 30
0.0
 11
97.350080
 21
87.149954
 31
0.0
  0
LINE
  5
1d1
100
AcDbEntity
  8
0
 62
7
100
AcDbLine
 10
97.350080
 20
87.149954
 30
0.0
 11
97.350080
 21
91.349957
 31
0.0
  0
LINE
  5
1d2
100
AcDbEntity
  8
0
 62
7
100
AcDbLine
 10
97.350080
 20
91.349957
 30
0.0
 11
110.350091
 21
91.349957
 31
0.0
  0
LINE
  5
1d3
100
AcDbEntity
  8
0
 62
7
100
AcDbLine
 10
110.350091
 20
91.349957
 30
0.0
 11
110.350091
 21
87.149954
 31
0.0
  0
LINE
  5
1d4
100
AcDbEntity
  8
0
 62
7
100
AcDbLine
 10
110.350091
 20
87.149954
 30
0.0
 11
118.150098
 21
87.149954
 31
0.0
  0
LINE
  5
1d5
100
AcDbEntity
  8
0
 62
7
100
AcDbLine
 10
118.150098
 20
87.149954
 30
0.0
 11
118.150098
 21
76.599945
 31
0.0
  0
LINE
  5
1d6
100
AcDbEntity
  8
0
 62
7
100
AcDbLine
 10
118.150098
 20
76.599945
 30
0.0
 11
122.350101
 21
76.599945
 31
0.0
  0
LINE
  5
1d7
100
AcDbEntity
  8
0
 62
7
100
AcDbLine
 10
122.350101
 20
76.599945
 30
0.0
 11
122.350101
 21
60.849933
 31
0.0
  0
LINE
  5
1d8
100
AcDbEntity
  8
0
 62
7
100
AcDbLine
 10
122.350101
 20
60.849933
 30
0.0
 11
118.150098
 21
60.849933
 31
0.0
  0
LINE
  5
1d9
100
AcDbEntity
  8
0
 62
7
100
AcDbLine
 10
118.150098
 20
60.849933
 30
0.0
 11
118.150098
 21
52.849927
 31
0.0
  0
LINE
  5
1da
100
AcDbEntity
  8
0
 62
7
100
AcDbLine
 10
118.150098
 20
52.849927
 30
0.0
 11
122.350101
 21
52.849927
 31
0.0
  0
LINE
  5
1db
100
AcDbEntity
  8
0
 62
7
100
AcDbLine
 10
122.350101
 20
52.849927
 30
0.0
 11
122.350101
 21
42.849918
 31
0.0
  0
LINE
  5
1dc
100
AcDbEntity
  8
0
 62
7
100
AcDbLine
 10
122.350101
 20
42.849918
 30
0.0
 11
118.150098
 21
42.849918
 31
0.0
  0
LINE
  5
1dd
100
AcDbEntity
  8
0
 62
7
100
AcDbLine
 10
118.150098
 20
42.849918
 30
0.0
 11
118.150098
 21
34.849912
 31
0.0
  0
LINE
  5
1de
100
AcDbEntity
  8
0
 62
7
100
AcDbLine
 10
118.150098
 20
34.849912
 30
0.0
 11
122.350101
 21
34.849912
 31
0.0
  0
LINE
  5
1df
100
AcDbEntity
  8
0
 62
7
100
AcDbLine
 10
122.350101
 20
34.849912
 30
0.0
 11
122.350101
 21
19.099897
 31
0.0
  0
LINE
  5
1e0
100
AcDbEntity
  8
0
 62
7
100
AcDbLine
 10
122.350101
 20
19.099897
 30
0.0
 11
118.150098
 21
19.099897
 31
0.0
  0
LINE
  5
1e1
100
AcDbEntity
  8
0
 62
7
100
AcDbLine
 10
118.150098
 20
19.099897
 30
0.0
 11
118.150098
 21
8.549888
 31
0.0
  0
LINE
  5
1e2
100
AcDbEntity
  8
0
 62
7
100
AcDbLine
 10
118.150098
 20
8.549888
 30
0.0
 11
110.350091
 21
8.549888
 31
0.0
  0
LINE
  5
1e3
100
AcDbEntity
  8
0
 62
7
100
AcDbLine
 10
110.350091
 20
8.549888
 30
0.0
 11
110.350091
 21
4.349885
 31
0.0
  0
LINE
  5
1e4
100
AcDbEntity
  8
0
 62
7
100
AcDbLine
 10
110.350091
 20
4.349885
 30
0.0
 11
97.350080
 21
4.349885
 31
0.0
  0
LINE
  5
1e5
100
AcDbEntity
  8
0
 62
7
100
AcDbLine
 10
97.350080
 20
4.349885
 30
0.0
 11
97.350080
 21
8.549888
 31
0.0
  0
LINE
  5
1e6
100
AcDbEntity
  8
0
 62
7
100
AcDbLine
 10
97.350080
 20
8.549888
 30
0.0
 11
89.350073
 21
8.549888
 31
0.0
  0
LINE
  5
1e7
100
AcDbEntity
  8
0
 62
7
100
AcDbLine
 10
89.350073
 20
8.549888
 30
0.0
 11
89.350073
 21
4.349885
 31
0.0
  0
LINE
  5
1e8
100
AcDbEntity
  8
0
 62
7
100
AcDbLine
 10
89.350073
 20
4.349885
 30
0.0
 11
76.350063
 21
4.349885
 31
0.0
  0
LINE
  5
1e9
100
AcDbEntity
  8
0
 62
7
100
AcDbLine
 10
76.350063
 20
4.349885
 30
0.0
 11
76.350063
 21
8.549888
 31
0.0
  0
LINE
  5
1ea
100
AcDbEntity
  8
0
 62
7
100
AcDbLine
 10
76.350063
 20
8.549888
 30
0.0
 11
68.550056
 21
8.549888
 31
0.0
  0
LINE
  5
1eb
100
AcDbEntity
  8
0
 62
7
100
AcDbLine
 10
68.550056
 20
8.549888
 30
0.0
 11
68.550056
 21
19.099897
 31
0.0
  0
LINE
  5
1ec
100
AcDbEntity
  8
0
 62
7
100
AcDbLine
 10
68.550056
 20
19.099897
 30
0.0
 11
64.350053
 21
19.099897
 31
0.0
  0
LINE
  5
1ed
100
AcDbEntity
  8
0
 62
7
100
AcDbLine
 10
64.350053
 20
19.099897
 30
0.0
 11
64.350053
 21
34.849912
 31
0.0
  0
LINE
  5
1ee
100
AcDbEntity
  8
0
 62
7
100
AcDbLine
 10
64.350053
 20
34.849912
 30
0.0
 11
68.550056
 21
34.849912
 31
0.0
  0
LINE
  5
1ef
100
AcDbEntity
  8
0
 62
7
100
AcDbLine
 10
68.550056
 20
34.849912
 30
0.0
 11
68.550056
 21
42.849918
 31
0.0
  0
LINE
  5
1f0
100
AcDbEntity
  8
0
 62
7
100
AcDbLine
 10
68.550056
 20
42.849918
 30
0.0
 11
64.350053
 21
42.849918
 31
0.0
  0
LINE
  5
1f1
100
AcDbEntity
  8
0
 62
7
100
AcDbLine
 10
64.350053
 20
42.849918
 30
0.0
 11
64.350053
 21
52.849927
 31
0.0
  0
LINE
  5
1f2
100
AcDbEntity
  8
0
 62
7
100
AcDbLine
 10
64.350053
 20
52.849927
 30
0.0
 11
68.550056
 21
52.849927
 31
0.0
  0
LINE
  5
1f3
100
AcDbEntity
  8
0
 62
7
100
AcDbLine
 10
68.550056
 20
52.849927
 30
0.0
 11
68.550056
 21
60.849933
 31
0.0
  0
LINE
  5
1f4
100
AcDbEntity
  8
0
 62
7
100
AcDbLine
 10
68.550056
 20
60.849933
 30
0.0
 11
64.350053
 21
60.849933
 31
0.0
  0
LINE
  5
1f5
100
AcDbEntity
  8
0
 62
7
100
AcDbLine
 10
64.350053
 20
60.849933
 30
0.0
 11
64.350053
 21
76.599945
 31
0.0
  0
LINE
  5
1f6
100
AcDbEntity
  8
0
 62
7
100
AcDbLine
 10
64.350053
 20
76.599945
 30
0.0
 11
68.550056
 21
76.599945
 31
0.0
  0
LINE
  5
1f7
100
AcDbEntity
  8
0
 62
7
100
AcDbLine
 10
68.550056
 20
76.599945
 30
0.0
 11
68.550056
 21
87.149954
 31
0.0
  0
ENDSEC
  0
SECTION
  2
OBJECTS
  0
DICTIONARY
  5
C
330
0
100
AcDbDictionary
  3
ACAD_GROUP
350
D
  3
ACAD_MLINESTYLE
350
17
  0
DICTIONARY
  5
D
330
C
100
AcDbDictionary
  0
DICTIONARY
  5
1A
330
C
100
AcDbDictionary
  0
DICTIONARY
  5
17
330
C
100
AcDbDictionary
  3
STANDARD
350
18
  0
DICTIONARY
  5
19
330
C
100
AcDbDictionary
  0
ENDSEC
  0
EOF
