G75*
%MOIN*%
%OFA0B0*%
%FSLAX24Y24*%
%IPPOS*%
%LPD*%
%AMOC8*
5,1,8,0,0,1.08239X$1,22.5*
%
%ADD10C,0.0000*%
%ADD11R,0.0434X0.1221*%
%ADD12R,0.4371X0.3190*%
%ADD13R,0.0750X0.0670*%
%ADD14R,0.0670X0.0750*%
%ADD15R,0.0749X0.0670*%
%ADD16C,0.0640*%
D10*
X000220Y000100D02*
X000220Y015096D01*
X012090Y015096D01*
X012090Y000100D01*
X000220Y000100D01*
D11*
X002131Y008200D03*
X002801Y008200D03*
X003470Y008200D03*
X004139Y008200D03*
X004809Y008200D03*
X007381Y008200D03*
X008051Y008200D03*
X008720Y008200D03*
X009389Y008200D03*
X010059Y008200D03*
D12*
X008720Y012600D03*
X003470Y012600D03*
D13*
X004220Y006660D03*
X004220Y005540D03*
X009720Y005540D03*
X009720Y006660D03*
D14*
X007530Y003600D03*
X006410Y003600D03*
X005030Y003600D03*
X003910Y003600D03*
D15*
X002720Y005549D03*
X002720Y006651D03*
X008220Y006651D03*
X008220Y005549D03*
D16*
X007220Y001900D02*
X007220Y001300D01*
X006220Y001200D02*
X006220Y001800D01*
X005220Y001900D02*
X005220Y001300D01*
X004220Y001200D02*
X004220Y001800D01*
X003220Y001900D02*
X003220Y001300D01*
X008220Y001200D02*
X008220Y001800D01*
M02*
