G75*
%MOIN*%
%OFA0B0*%
%FSLAX24Y24*%
%IPPOS*%
%LPD*%
%AMOC8*
5,1,8,0,0,1.08239X$1,22.5*
%
%ADD10C,0.0000*%
%ADD11C,0.0080*%
%ADD12C,0.0435*%
%ADD13C,0.0040*%
D10*
X000220Y000100D02*
X000220Y015096D01*
X012090Y015096D01*
X012090Y000100D01*
X000220Y000100D01*
D11*
X002720Y001160D02*
X002830Y001050D01*
X002720Y001160D02*
X002720Y001550D01*
X002720Y001940D01*
X002830Y002050D01*
X002820Y001550D02*
X002720Y001550D01*
X003620Y001550D02*
X003820Y001550D01*
X004620Y001550D02*
X004820Y001550D01*
X005620Y001550D02*
X005820Y001550D01*
X006620Y001550D02*
X006820Y001550D01*
X007620Y001550D02*
X007820Y001550D01*
X008620Y001550D02*
X008720Y001550D01*
X008720Y001940D01*
X008610Y002050D01*
X008720Y001550D02*
X008720Y001160D01*
X008610Y001050D01*
X006673Y009500D02*
X006673Y010800D01*
X005517Y010800D02*
X005517Y009500D01*
X001423Y009500D01*
X001423Y010800D01*
X006673Y009500D02*
X010767Y009500D01*
X010767Y010800D01*
D12*
X007214Y010080D03*
X001964Y010080D03*
D13*
X002000Y006387D02*
X002000Y006080D01*
X001693Y006387D01*
X001616Y006387D01*
X001540Y006311D01*
X001540Y006157D01*
X001616Y006080D01*
X001616Y005927D02*
X001540Y005850D01*
X001540Y005697D01*
X001616Y005620D01*
X001923Y005620D01*
X002000Y005697D01*
X002000Y005850D01*
X001923Y005927D01*
X003352Y002880D02*
X003505Y002880D01*
X003429Y002880D02*
X003429Y002497D01*
X003352Y002420D01*
X003275Y002420D01*
X003198Y002497D01*
X003659Y002420D02*
X003659Y002880D01*
X003812Y002727D01*
X003966Y002880D01*
X003966Y002420D01*
X004119Y002420D02*
X004119Y002880D01*
X004349Y002880D01*
X004426Y002804D01*
X004426Y002650D01*
X004349Y002573D01*
X004119Y002573D01*
X004580Y002420D02*
X004887Y002727D01*
X004887Y002804D01*
X004810Y002880D01*
X004656Y002880D01*
X004580Y002804D01*
X004580Y002420D02*
X004887Y002420D01*
X006698Y002497D02*
X006775Y002420D01*
X006852Y002420D01*
X006929Y002497D01*
X006929Y002880D01*
X007005Y002880D02*
X006852Y002880D01*
X007159Y002880D02*
X007312Y002727D01*
X007466Y002880D01*
X007466Y002420D01*
X007619Y002420D02*
X007619Y002880D01*
X007849Y002880D01*
X007926Y002804D01*
X007926Y002650D01*
X007849Y002573D01*
X007619Y002573D01*
X007159Y002420D02*
X007159Y002880D01*
X008080Y002727D02*
X008233Y002880D01*
X008233Y002420D01*
X008080Y002420D02*
X008387Y002420D01*
X007423Y005620D02*
X007116Y005620D01*
X007040Y005697D01*
X007040Y005850D01*
X007116Y005927D01*
X007193Y006080D02*
X007040Y006234D01*
X007500Y006234D01*
X007500Y006387D02*
X007500Y006080D01*
X007423Y005927D02*
X007500Y005850D01*
X007500Y005697D01*
X007423Y005620D01*
X005400Y005749D02*
X004940Y005749D01*
X004940Y005979D01*
X005016Y006056D01*
X005170Y006056D01*
X005247Y005979D01*
X005247Y005749D01*
X005247Y005903D02*
X005400Y006056D01*
X005400Y006210D02*
X005093Y006517D01*
X005016Y006517D01*
X004940Y006440D01*
X004940Y006286D01*
X005016Y006210D01*
X005400Y006210D02*
X005400Y006517D01*
X010440Y006363D02*
X010900Y006363D01*
X010900Y006210D02*
X010900Y006517D01*
X010593Y006210D02*
X010440Y006363D01*
X010516Y006056D02*
X010440Y005979D01*
X010440Y005749D01*
X010900Y005749D01*
X010747Y005749D02*
X010747Y005979D01*
X010670Y006056D01*
X010516Y006056D01*
X010747Y005903D02*
X010900Y006056D01*
M02*
